{"asset":{"version":"2.0","generator":"babylon.js glTF exporter for 3ds max 2018 v1.3.32"},"scene":0,"scenes":[{"nodes":[0],"extensions":{}}],"nodes":[{"children":[1,2,3],"translation":[0.0,0.0,0.0],"rotation":[0.0,0.0,0.0,1.0],"scale":[0.001,0.001,0.001],"name":"root"},{"mesh":0,"translation":[0.0,0.0,0.0],"rotation":[-9.000051E-15,-1.0,1.1920929E-07,-7.54979E-08],"scale":[1.0,1.0,1.0],"name":"Layer:修改"},{"mesh":1,"translation":[0.0,-100.0,0.0],"rotation":[0.0,0.7071068,0.0,0.7071067],"scale":[1.0,1.0,1.0],"name":"Box001"},{"translation":[0.0,0.0,0.0],"rotation":[0.0,0.0,0.0,1.0],"scale":[1.0,1.0,1.0],"name":"Default light"}],"meshes":[{"primitives":[{"attributes":{"POSITION":1,"NORMAL":2},"indices":0,"mode":4}],"name":"Layer:修改"},{"primitives":[{"attributes":{"POSITION":4,"NORMAL":5,"TEXCOORD_0":6},"indices":3,"mode":4}],"name":"Box001"}],"accessors":[{"bufferView":0,"componentType":5123,"count":6606,"type":"SCALAR","name":"accessorIndices"},{"bufferView":1,"componentType":5126,"count":6606,"max":[26200.0,3000.0,27200.0],"min":[-26200.0,0.0,-27200.002],"type":"VEC3","name":"accessorPositions"},{"bufferView":1,"byteOffset":79272,"componentType":5126,"count":6606,"type":"VEC3","name":"accessorNormals"},{"bufferView":0,"byteOffset":13212,"componentType":5123,"count":36,"type":"SCALAR","name":"accessorIndices"},{"bufferView":1,"byteOffset":158544,"componentType":5126,"count":36,"max":[27200.0,100.0,26200.0],"min":[-27200.0,0.0,-26200.0],"type":"VEC3","name":"accessorPositions"},{"bufferView":1,"byteOffset":158976,"componentType":5126,"count":36,"type":"VEC3","name":"accessorNormals"},{"bufferView":2,"componentType":5126,"count":36,"type":"VEC2","name":"accessorUVs"}],"bufferViews":[{"buffer":0,"byteLength":13284,"name":"bufferViewScalar"},{"buffer":0,"byteOffset":13284,"byteLength":159408,"byteStride":12,"name":"bufferViewFloatVec3"},{"buffer":0,"byteOffset":172692,"byteLength":288,"byteStride":8,"name":"bufferViewFloatVec2"}],"buffers":[{"uri":"1.bin","byteLength":172980}]}