{"asset":{"version":"2.0","generator":"babylon.js glTF exporter for 3ds max 2018 v1.4.2"},"scene":0,"scenes":[{"nodes":[0],"extensions":{}}],"nodes":[{"children":[1,2],"translation":[0.0,0.0,0.0],"rotation":[0.0,0.0,0.0,1.0],"scale":[0.25,0.25,0.25],"name":"root"},{"mesh":0,"translation":[0.0,0.0,1.19157164E-08],"rotation":[0.7071068,0.0,0.0,0.7071067],"scale":[1.0,1.0,1.0],"name":"flask"},{"translation":[0.0,0.0,0.0],"rotation":[0.0,0.0,0.0,1.0],"scale":[1.0,1.0,1.0],"name":"Default light"}],"meshes":[{"primitives":[{"attributes":{"POSITION":1,"NORMAL":2},"indices":0,"mode":4,"material":0}],"name":"flask"}],"accessors":[{"bufferView":0,"componentType":5123,"count":7680,"type":"SCALAR","name":"accessorIndices"},{"bufferView":1,"componentType":5126,"count":7680,"max":[0.7184205,0.718420446,-0.006823227],"min":[-0.7184205,-0.7184205,-2.24924374],"type":"VEC3","name":"accessorPositions"},{"bufferView":1,"byteOffset":92160,"componentType":5126,"count":7680,"type":"VEC3","name":"accessorNormals"}],"bufferViews":[{"buffer":0,"byteLength":15360,"name":"bufferViewScalar"},{"buffer":0,"byteOffset":15360,"byteLength":184320,"byteStride":12,"name":"bufferViewFloatVec3"}],"buffers":[{"uri":"flask.bin","byteLength":199680}],"materials":[{"pbrMetallicRoughness":{"baseColorFactor":[0.609999955,0.609999955,0.609999955,0.170000017],"metallicFactor":0.0,"roughnessFactor":0.39},"emissiveFactor":[0.0,0.0,0.0],"alphaMode":"BLEND","name":"Material #8"}]}