{"asset":{"version":"2.0","generator":"babylon.js glTF exporter for 3ds max 2018 v1.4.2"},"scene":0,"scenes":[{"nodes":[0],"extensions":{}}],"nodes":[{"children":[1,2],"translation":[0.0,0.0,0.0],"rotation":[0.0,0.0,0.0,1.0],"scale":[0.005,0.005,0.005],"name":"root"},{"mesh":0,"translation":[0.0,0.001946522,-4.795819E-06],"rotation":[0.0,0.0,0.0,1.0],"scale":[1.0,0.151846424,1.0],"name":"Sphere001"},{"translation":[0.0,0.0,0.0],"rotation":[0.0,0.0,0.0,1.0],"scale":[1.0,1.0,1.0],"name":"Default light"}],"meshes":[{"primitives":[{"attributes":{"POSITION":1,"NORMAL":2,"TEXCOORD_0":3},"indices":0,"mode":4,"material":0}],"name":"Sphere001"}],"accessors":[{"bufferView":0,"componentType":5123,"count":3072,"type":"SCALAR","name":"accessorIndices"},{"bufferView":1,"componentType":5126,"count":3072,"max":[0.00440446427,9.802878E-06,0.00440446427],"min":[-0.00440446427,-0.00440446474,-0.00440446427],"type":"VEC3","name":"accessorPositions"},{"bufferView":1,"byteOffset":36864,"componentType":5126,"count":3072,"type":"VEC3","name":"accessorNormals"},{"bufferView":2,"componentType":5126,"count":3072,"type":"VEC2","name":"accessorUVs"}],"bufferViews":[{"buffer":0,"byteLength":6144,"name":"bufferViewScalar"},{"buffer":0,"byteOffset":6144,"byteLength":73728,"byteStride":12,"name":"bufferViewFloatVec3"},{"buffer":0,"byteOffset":79872,"byteLength":24576,"byteStride":8,"name":"bufferViewFloatVec2"}],"buffers":[{"uri":"plate.bin","byteLength":104448}],"materials":[{"pbrMetallicRoughness":{"baseColorFactor":[0.9058824,0.9058824,0.9058824,1.0],"metallicFactor":0.0,"roughnessFactor":0.255953282},"emissiveFactor":[0.0,0.0,0.0],"alphaMode":"OPAQUE","name":"Material #59"}]}